name C:\Users\u0150099\Documents\master_thesis\3dpredictsim\Results\debug\Fal_s1_mtj_sc_cspx10_oy_TrackSubtQ_MTc_MTPm_k1_d01_MTJm_nl_MG_exp_table_d01_PF_Gefen2002_ls146_FDB_ig21.mot
datacolumns 130
datarows 4
range 1.02204059 1.05270181
endheader
time	pelvis_tilt	pelvis_list	pelvis_rotation	pelvis_tx	pelvis_ty	pelvis_tz	hip_flexion_l	hip_adduction_l	hip_rotation_l	hip_flexion_r	hip_adduction_r	hip_rotation_r	knee_angle_l	knee_angle_r	ankle_angle_l	ankle_angle_r	subtalar_angle_l	subtalar_angle_r	mtj_angle_l	mtj_angle_r	mtp_angle_l	mtp_angle_r	lumbar_extension	lumbar_bending	lumbar_rotation	arm_flex_l	arm_add_l	arm_rot_l	arm_flex_r	arm_add_r	arm_rot_r	elbow_flex_l	elbow_flex_r	pro_sup_l	pro_sup_r	glut_med1_l/activation	glut_med2_l/activation	glut_med3_l/activation	glut_min1_l/activation	glut_min2_l/activation	glut_min3_l/activation	semimem_l/activation	semiten_l/activation	bifemlh_l/activation	bifemsh_l/activation	sar_l/activation	add_long_l/activation	add_brev_l/activation	add_mag1_l/activation	add_mag2_l/activation	add_mag3_l/activation	tfl_l/activation	pect_l/activation	grac_l/activation	glut_max1_l/activation	glut_max2_l/activation	glut_max3_l/activation	iliacus_l/activation	psoas_l/activation	quad_fem_l/activation	gem_l/activation	peri_l/activation	rect_fem_l/activation	vas_med_l/activation	vas_int_l/activation	vas_lat_l/activation	med_gas_l/activation	lat_gas_l/activation	soleus_l/activation	tib_post_l/activation	flex_dig_l/activation	flex_hal_l/activation	tib_ant_l/activation	per_brev_l/activation	per_long_l/activation	per_tert_l/activation	ext_dig_l/activation	ext_hal_l/activation	FDB_l/activation	ercspn_l/activation	intobl_l/activation	extobl_l/activation	glut_med1_r/activation	glut_med2_r/activation	glut_med3_r/activation	glut_min1_r/activation	glut_min2_r/activation	glut_min3_r/activation	semimem_r/activation	semiten_r/activation	bifemlh_r/activation	bifemsh_r/activation	sar_r/activation	add_long_r/activation	add_brev_r/activation	add_mag1_r/activation	add_mag2_r/activation	add_mag3_r/activation	tfl_r/activation	pect_r/activation	grac_r/activation	glut_max1_r/activation	glut_max2_r/activation	glut_max3_r/activation	iliacus_r/activation	psoas_r/activation	quad_fem_r/activation	gem_r/activation	peri_r/activation	rect_fem_r/activation	vas_med_r/activation	vas_int_r/activation	vas_lat_r/activation	med_gas_r/activation	lat_gas_r/activation	soleus_r/activation	tib_post_r/activation	flex_dig_r/activation	flex_hal_r/activation	tib_ant_r/activation	per_brev_r/activation	per_long_r/activation	per_tert_r/activation	ext_dig_r/activation	ext_hal_r/activation	FDB_r/activation	ercspn_r/activation	intobl_r/activation	extobl_r/activation	
          1.02204059	         -2.92641607	         -1.55187157	          4.89280151	          1.35931399	          0.90163256	         -0.00491794	        -11.54310037	          0.59579081	          1.66281077	         31.69226293	          1.81221538	         -7.37848737	        -22.08430466	        -21.57893300	          0.69902697	         -3.66373682	          4.12309833	          1.32601873	          7.43249595	          7.66781121	         21.46135234	         -6.39721538	         -3.63897271	          0.51058908	         -1.35080757	          4.67499034	        -13.66810557	         19.29253431	         -5.34139315	        -13.52542132	          6.37877739	         36.01614518	         24.22528568	         86.51662706	         86.51662706	          0.16736628	          0.06848310	          0.05000030	          0.39162743	          0.22643071	          0.09579341	          0.05000161	          0.05000018	          0.05000021	          0.05000025	          0.08787165	          0.05000074	          0.05000033	          0.05000044	          0.05000120	          0.05000067	          0.55117872	          0.05000393	          0.05000052	          0.05000370	          0.05000165	          0.05000083	          0.15628996	          0.54219406	          0.05000019	          0.05000079	          0.05000115	          0.64239744	          0.15325296	          0.15110717	          0.12261306	          0.34630256	          0.60719853	          0.11528500	          0.51405852	          0.79375875	          0.99881800	          0.13542305	          0.43443402	          0.39567704	          0.05000012	          0.05000007	          0.05000086	          0.85122606	          0.05000014	          0.05000011	          0.05000008	          0.05000138	          0.05000095	          0.05000054	          0.05027649	          0.05001388	          0.05000549	          0.23887376	          0.07085927	          0.34832807	          0.12959891	          0.12847495	          0.11388493	          0.06341007	          0.05000525	          0.05000091	          0.17321618	          0.05416988	          0.06388883	          0.05001416	          0.05000055	          0.05000023	          0.15006522	          0.12848197	          0.12848215	          0.16066879	          0.07372926	          0.05555594	          0.05000017	          0.05000033	          0.05000028	          0.05000018	          0.06848477	          0.06848472	          0.06000235	          0.12390076	          0.05000055	          0.06848449	          0.68759606	          0.09380319	          0.08065849	          0.22916056	          0.74868390	          0.08265860	          0.86082475	          0.05851718	          0.12336275	          0.09598683	
          1.03226100	         -2.92940840	         -1.65490666	          5.22334679	          1.37550548	          0.89998899	         -0.00455370	        -12.72544126	          0.16329329	          1.51911395	         31.79369726	          1.94344955	         -7.50339912	        -21.47241031	        -21.97164661	         -0.79912271	         -3.88141312	          4.40247170	          1.20298165	          7.29171910	          7.71177559	         23.23622716	         -7.01668200	         -3.49196980	          0.67878422	         -1.46080379	          4.43649444	        -13.62516487	         19.37412761	         -6.05573053	        -13.48520555	          5.83154859	         36.94978675	         23.70308062	         86.51662706	         86.51662706	          0.14300657	          0.05851579	          0.05000174	          0.33462708	          0.19347436	          0.08185115	          0.05000315	          0.05000036	          0.05000040	          0.05000029	          0.07508251	          0.16666171	          0.05222154	          0.05002979	          0.05002368	          0.05000355	          0.48748478	          0.05690045	          0.05000157	          0.05001610	          0.05001003	          0.05001116	          0.13354241	          0.58715349	          0.05316680	          0.05003230	          0.05119590	          0.54889823	          0.14998627	          0.14709533	          0.12275287	          0.32870906	          0.57103687	          0.10869148	          0.43923861	          0.83177128	          0.99929682	          0.29064992	          0.43281795	          0.36876566	          0.05000028	          0.05000006	          0.05000031	          0.72733231	          0.05000005	          0.05000049	          0.05000023	          0.05000040	          0.05000052	          0.05000068	          0.05000067	          0.05000074	          0.05000087	          0.21149411	          0.06848796	          0.32807390	          0.11073626	          0.10977615	          0.13227633	          0.10123327	          0.05000313	          0.05000188	          0.22361450	          0.05851631	          0.05473046	          0.18954542	          0.05000083	          0.05000248	          0.22844232	          0.10978182	          0.10978197	          0.13742685	          0.06299964	          0.05000043	          0.05000021	          0.05000016	          0.05000014	          0.05000011	          0.05851700	          0.05851699	          0.05851699	          0.19470747	          0.05000041	          0.05851683	          0.65556919	          0.08015044	          0.06891888	          0.19580688	          0.76924211	          0.14479210	          0.85052617	          0.05000019	          0.13773085	          0.08201622	
          1.04248140	         -2.93017634	         -1.75959626	          5.52598985	          1.39196280	          0.89824958	         -0.00414601	        -13.80869827	         -0.26641543	          1.39499337	         31.93127606	          2.08468690	         -7.60017355	        -21.04794014	        -23.15489598	         -2.40246568	         -4.19817565	          4.65188698	          0.91988666	          7.15453332	          7.85503231	         24.99022725	         -7.55452030	         -3.33135905	          0.85613138	         -1.56841522	          4.12860662	        -13.58004707	         19.38695597	         -6.77812848	        -13.45824508	          5.46594946	         37.86460086	         23.17724679	         86.51662706	         86.51662706	          0.12219236	          0.05000082	          0.05000144	          0.28592301	          0.16531473	          0.06993817	          0.05000227	          0.05000018	          0.05000023	          0.05000013	          0.06415497	          0.27094981	          0.19667691	          0.07345445	          0.05002639	          0.05002302	          0.43997179	          0.05004659	          0.05000054	          0.05001295	          0.05000746	          0.05001930	          0.11410569	          0.61399247	          0.10816317	          0.06848380	          0.06848437	          0.46900751	          0.12815806	          0.12568793	          0.10489741	          0.30461567	          0.53073883	          0.10452369	          0.37530854	          0.89994298	          0.99958155	          0.48498514	          0.36982251	          0.31509287	          0.43498141	          0.05000032	          0.05000024	          0.62147092	          0.05000003	          0.05000006	          0.05000004	          0.05000058	          0.05000111	          0.05000059	          0.05851596	          0.05005336	          0.05000374	          0.18071168	          0.05851981	          0.28032359	          0.09461891	          0.09379867	          0.11302415	          0.09372254	          0.16333871	          0.19235077	          0.28559240	          0.05000120	          0.08006775	          0.16195884	          0.05000055	          0.17960786	          0.34851130	          0.09380338	          0.09380351	          0.11959469	          0.12402228	          0.08518406	          0.05000007	          0.05000003	          0.05000003	          0.05000002	          0.05000000	          0.05000000	          0.05000000	          0.26033304	          0.05000016	          0.05000023	          0.68837801	          0.06848475	          0.05888792	          0.16730770	          0.77425973	          0.28853268	          0.72673431	          0.06157229	          0.12441218	          0.07007898	
          1.05270181	         -2.92864184	         -1.85544727	          5.79445199	          1.40861594	          0.89638553	         -0.00371600	        -14.73165602	         -0.67199078	          1.29469947	         32.03575013	          2.21434855	         -7.66672374	        -20.93555535	        -25.02724313	         -4.01977595	         -4.28169271	          4.88232540	          0.36727336	          7.01642884	          7.90148262	         26.52581828	         -8.09232695	         -3.16327448	          1.03295128	         -1.67057950	          3.75313486	        -13.54637160	         19.36046657	         -7.49328706	        -13.44970843	          5.27896250	         38.79366997	         22.64391787	         86.51662706	         86.51662706	          0.10440762	          0.05593651	          0.05851705	          0.24430769	          0.14125367	          0.05975909	          0.05000415	          0.07980960	          0.08562936	          0.05000203	          0.05851578	          0.39846236	          0.37117868	          0.33337748	          0.12164956	          0.10936601	          0.38821303	          0.06849721	          0.09380393	          0.05006577	          0.05017317	          0.05851655	          0.09749794	          0.63093256	          0.13670356	          0.05851904	          0.05851701	          0.40074465	          0.10950505	          0.10739444	          0.08962992	          0.28020834	          0.48227995	          0.09946595	          0.32068333	          0.81427252	          0.90503132	          0.69125603	          0.31599585	          0.26923195	          0.66395149	          0.17594236	          0.05000012	          0.53101739	          0.09524009	          0.05000006	          0.05000073	          0.10989467	          0.05000020	          0.05000127	          0.05000019	          0.05000018	          0.05000025	          0.15440956	          0.05000243	          0.23952319	          0.08084738	          0.08014658	          0.09657405	          0.34063708	          0.36130577	          0.35204137	          0.34244776	          0.05000057	          0.06848319	          0.13838628	          0.18788162	          0.28091921	          0.44778995	          0.08015056	          0.08015066	          0.47637277	          0.10597214	          0.15873672	          0.05851703	          0.05861397	          0.05851833	          0.05851729	          0.05851711	          0.05851752	          0.06325948	          0.22676203	          0.05000090	          0.05000023	          0.80504999	          0.05851704	          0.05031697	          0.28970208	          0.79736708	          0.54030877	          0.62096000	          0.05261065	          0.10630453	          0.05987917	
